<svg width="100" height="100" viewBox="0 0 100 100" fill="none" xmlns="http://www.w3.org/2000/svg">
<rect width="100" height="100" fill="#F5F5F5"/>
<rect width="100" height="100" fill="white"/>
<path fill-rule="evenodd" clip-rule="evenodd" d="M10 20.6667C10 16.933 10 15.0661 10.7266 13.6401C11.3658 12.3856 12.3856 11.3658 13.6401 10.7266C15.0661 10 16.933 10 20.6667 10H79.3333C83.067 10 84.9339 10 86.3599 10.7266C87.6143 11.3658 88.6342 12.3856 89.2734 13.6401C90 15.0661 90 16.933 90 20.6667V79.3333C90 83.067 90 84.9339 89.2734 86.3599C88.6342 87.6143 87.6143 88.6342 86.3599 89.2734C84.9339 90 83.067 90 79.3333 90H20.6667C16.933 90 15.0661 90 13.6401 89.2734C12.3856 88.6342 11.3658 87.6143 10.7266 86.3599C10 84.9339 10 83.067 10 79.3333V20.6667ZM26.6665 26.6665H73.3332V33.3332H26.6665V26.6665ZM73.3332 46.6665H26.6665V53.3332H73.3332V46.6665ZM26.6665 66.6665H73.3332V73.3332H26.6665V66.6665Z" fill="#EC1D25"/>
</svg>
