<svg width="80" height="80" viewBox="0 0 80 80" fill="none" xmlns="http://www.w3.org/2000/svg">
<path fill-rule="evenodd" clip-rule="evenodd" d="M0 10.6667C0 6.93299 0 5.06614 0.726623 3.64006C1.36578 2.38565 2.38565 1.36578 3.64006 0.726624C5.06614 4.17233e-07 6.93298 0 10.6667 0H69.3333C73.067 0 74.9339 4.17233e-07 76.3599 0.726624C77.6143 1.36578 78.6342 2.38565 79.2734 3.64006C80 5.06614 80 6.93299 80 10.6667V69.3333C80 73.067 80 74.9339 79.2734 76.3599C78.6342 77.6143 77.6143 78.6342 76.3599 79.2734C74.9339 80 73.067 80 69.3333 80H10.6667C6.93298 80 5.06614 80 3.64006 79.2734C2.38565 78.6342 1.36578 77.6143 0.726623 76.3599C0 74.9339 0 73.067 0 69.3333V10.6667ZM16.6665 16.6665H63.3332V23.3332H16.6665V16.6665ZM63.3332 36.6665H16.6665V43.3332H63.3332V36.6665ZM16.6665 56.6665H63.3332V63.3332H16.6665V56.6665Z" fill="white"/>
</svg>
