<svg width="508" height="156" viewBox="0 0 508 156" fill="none" xmlns="http://www.w3.org/2000/svg">
<path d="M102.473 145.6C99.1401 145.6 96.6234 144.583 94.9234 142.55C93.2568 140.517 92.4234 137.467 92.4234 133.4C92.4234 131.8 92.5234 130.1 92.7234 128.3C92.9568 126.5 93.3068 124.717 93.7734 122.95C94.2734 121.183 94.9068 119.483 95.6734 117.85C96.4401 116.217 97.3901 114.783 98.5234 113.55C99.6568 112.317 100.973 111.333 102.473 110.6C103.973 109.867 105.69 109.5 107.623 109.5C109.09 109.5 110.357 109.7 111.423 110.1C112.49 110.5 113.373 111.05 114.073 111.75C114.807 112.45 115.39 113.267 115.823 114.2C116.29 115.1 116.64 116.05 116.873 117.05L114.223 117.9C114.023 117.067 113.757 116.3 113.423 115.6C113.09 114.867 112.657 114.25 112.123 113.75C111.59 113.217 110.94 112.817 110.173 112.55C109.44 112.25 108.523 112.1 107.423 112.1C104.523 112.1 102.123 113.25 100.223 115.55C98.3568 117.817 97.0901 121 96.4234 125.1L95.7234 129.2C95.5568 130.067 95.4401 130.9 95.3734 131.7C95.3401 132.5 95.3234 133.283 95.3234 134.05C95.3234 136.883 95.9234 139.083 97.1234 140.65C98.3568 142.217 100.24 143 102.773 143C104.84 143 106.54 142.433 107.873 141.3C109.24 140.133 110.573 138.367 111.873 136L114.223 137.2C112.823 139.933 111.223 142.017 109.423 143.45C107.623 144.883 105.307 145.6 102.473 145.6ZM131.504 145.6C129.904 145.6 128.487 145.35 127.254 144.85C126.054 144.317 125.054 143.6 124.254 142.7C123.454 141.767 122.837 140.667 122.404 139.4C122.004 138.1 121.804 136.7 121.804 135.2C121.804 132.633 122.137 130.333 122.804 128.3C123.471 126.233 124.387 124.483 125.554 123.05C126.721 121.617 128.104 120.517 129.704 119.75C131.337 118.983 133.104 118.6 135.004 118.6C136.604 118.6 138.004 118.867 139.204 119.4C140.437 119.9 141.454 120.617 142.254 121.55C143.054 122.45 143.654 123.55 144.054 124.85C144.487 126.117 144.704 127.5 144.704 129C144.704 131.567 144.371 133.883 143.704 135.95C143.037 137.983 142.121 139.717 140.954 141.15C139.787 142.583 138.387 143.683 136.754 144.45C135.154 145.217 133.404 145.6 131.504 145.6ZM131.704 143.15C134.337 143.15 136.454 142.317 138.054 140.65C139.687 138.983 140.737 136.683 141.204 133.75L141.654 130.95C141.754 130.383 141.821 129.917 141.854 129.55C141.887 129.183 141.904 128.783 141.904 128.35C141.904 126.05 141.304 124.267 140.104 123C138.904 121.7 137.137 121.05 134.804 121.05C132.171 121.05 130.037 121.883 128.404 123.55C126.804 125.217 125.771 127.517 125.304 130.45L124.854 133.25C124.754 133.817 124.687 134.283 124.654 134.65C124.621 135.017 124.604 135.417 124.604 135.85C124.604 138.15 125.204 139.95 126.404 141.25C127.604 142.517 129.371 143.15 131.704 143.15ZM151.734 145L156.034 119.2H158.834L157.834 125.15H158.034C159.001 123.117 160.168 121.517 161.534 120.35C162.934 119.183 164.701 118.6 166.834 118.6C169.034 118.6 170.734 119.25 171.934 120.55C173.168 121.817 173.784 123.6 173.784 125.9C173.784 126.367 173.751 126.883 173.684 127.45C173.651 127.983 173.584 128.517 173.484 129.05L170.834 145H168.034L170.634 129.35C170.734 128.783 170.801 128.25 170.834 127.75C170.868 127.25 170.884 126.817 170.884 126.45C170.884 124.717 170.468 123.4 169.634 122.5C168.834 121.567 167.618 121.1 165.984 121.1C163.684 121.1 161.701 122.083 160.034 124.05C159.534 124.65 158.968 125.467 158.334 126.5C157.701 127.5 157.251 128.733 156.984 130.2L154.534 145H151.734ZM189.665 145.6C187.932 145.6 187.065 144.733 187.065 143C187.065 142.533 187.115 141.9 187.215 141.1L190.565 121.6H182.115L182.515 119.2H189.065C189.765 119.2 190.298 119.05 190.665 118.75C191.032 118.45 191.282 117.933 191.415 117.2L192.615 110.1H195.265L193.765 119.2H205.415L205.015 121.6H193.365L189.815 142.65L190.515 143.05L202.865 135.2L204.265 137L195.815 142.55C194.215 143.65 192.965 144.433 192.065 144.9C191.198 145.367 190.398 145.6 189.665 145.6ZM221.945 145.6C218.745 145.6 216.295 144.683 214.595 142.85C212.895 140.983 212.045 138.2 212.045 134.5C212.045 132.233 212.379 130.133 213.045 128.2C213.712 126.267 214.645 124.583 215.845 123.15C217.079 121.717 218.529 120.6 220.195 119.8C221.895 119 223.762 118.6 225.795 118.6C228.329 118.6 230.362 119.183 231.895 120.35C233.462 121.483 234.245 123.117 234.245 125.25C234.245 126.117 234.029 127.033 233.595 128C233.195 128.967 232.329 129.867 230.995 130.7C229.662 131.533 227.712 132.25 225.145 132.85C222.612 133.45 219.229 133.8 214.995 133.9C214.962 134.167 214.945 134.417 214.945 134.65C214.945 134.883 214.945 135.033 214.945 135.1C214.945 136.2 215.045 137.233 215.245 138.2C215.479 139.167 215.862 140.033 216.395 140.8C216.962 141.533 217.712 142.117 218.645 142.55C219.579 142.983 220.762 143.2 222.195 143.2C224.195 143.2 225.895 142.683 227.295 141.65C228.695 140.617 230.045 139.033 231.345 136.9L233.395 138.15C231.962 140.65 230.345 142.517 228.545 143.75C226.745 144.983 224.545 145.6 221.945 145.6ZM225.495 120.95C222.862 120.95 220.629 121.817 218.795 123.55C216.962 125.25 215.812 127.717 215.345 130.95L215.195 131.85C218.662 131.75 221.445 131.5 223.545 131.1C225.679 130.7 227.329 130.2 228.495 129.6C229.662 128.967 230.429 128.283 230.795 127.55C231.195 126.817 231.395 126.083 231.395 125.35C231.395 124.117 230.945 123.083 230.045 122.25C229.145 121.383 227.629 120.95 225.495 120.95ZM241.676 145L245.976 119.2H248.776L247.776 125.15H247.976C248.942 123.117 250.109 121.517 251.476 120.35C252.876 119.183 254.642 118.6 256.776 118.6C258.976 118.6 260.676 119.25 261.876 120.55C263.109 121.817 263.726 123.6 263.726 125.9C263.726 126.367 263.692 126.883 263.626 127.45C263.592 127.983 263.526 128.517 263.426 129.05L260.776 145H257.976L260.576 129.35C260.676 128.783 260.742 128.25 260.776 127.75C260.809 127.25 260.826 126.817 260.826 126.45C260.826 124.717 260.409 123.4 259.576 122.5C258.776 121.567 257.559 121.1 255.926 121.1C253.626 121.1 251.642 122.083 249.976 124.05C249.476 124.65 248.909 125.467 248.276 126.5C247.642 127.5 247.192 128.733 246.926 130.2L244.476 145H241.676ZM279.606 145.6C277.873 145.6 277.006 144.733 277.006 143C277.006 142.533 277.056 141.9 277.156 141.1L280.506 121.6H272.056L272.456 119.2H279.006C279.706 119.2 280.24 119.05 280.606 118.75C280.973 118.45 281.223 117.933 281.356 117.2L282.556 110.1H285.206L283.706 119.2H295.356L294.956 121.6H283.306L279.756 142.65L280.456 143.05L292.806 135.2L294.206 137L285.756 142.55C284.156 143.65 282.906 144.433 282.006 144.9C281.14 145.367 280.34 145.6 279.606 145.6ZM324.587 114.5H324.337L312.837 133.7L307.787 114.5H307.487L302.437 145H299.737L305.537 110.1H309.187L313.737 127.4H313.937L324.137 110.1H327.987L322.187 145H319.487L324.587 114.5ZM347.817 145L348.817 139.05H348.667C347.667 141.017 346.451 142.6 345.017 143.8C343.617 145 341.784 145.6 339.517 145.6C336.817 145.6 334.751 144.733 333.317 143C331.917 141.233 331.217 138.783 331.217 135.65C331.217 133.617 331.451 131.6 331.917 129.6C332.417 127.567 333.167 125.733 334.167 124.1C335.167 122.467 336.417 121.15 337.917 120.15C339.451 119.117 341.267 118.6 343.367 118.6C345.434 118.6 347.117 119.05 348.417 119.95C349.751 120.85 350.684 122.1 351.217 123.7H351.367L352.117 119.2H354.917L350.617 145H347.817ZM340.317 143.1C341.384 143.1 342.417 142.9 343.417 142.5C344.417 142.1 345.351 141.467 346.217 140.6C346.984 139.8 347.684 138.85 348.317 137.75C348.984 136.617 349.434 135.35 349.667 133.95L350.767 127.5C350.901 126.633 350.851 125.817 350.617 125.05C350.417 124.25 350.034 123.567 349.467 123C348.901 122.4 348.151 121.933 347.217 121.6C346.317 121.267 345.267 121.1 344.067 121.1C342.767 121.1 341.584 121.333 340.517 121.8C339.484 122.267 338.567 122.917 337.767 123.75C337.001 124.55 336.367 125.517 335.867 126.65C335.367 127.783 335.001 129.017 334.767 130.35L334.217 133.5C334.151 133.967 334.101 134.4 334.067 134.8C334.034 135.167 334.017 135.533 334.017 135.9C334.017 138 334.517 139.733 335.517 141.1C336.551 142.433 338.151 143.1 340.317 143.1ZM361.598 145L365.898 119.2H368.698L367.698 125.15H367.898C368.864 123.117 370.031 121.517 371.398 120.35C372.798 119.183 374.564 118.6 376.698 118.6C378.898 118.6 380.598 119.25 381.798 120.55C383.031 121.817 383.648 123.6 383.648 125.9C383.648 126.367 383.614 126.883 383.548 127.45C383.514 127.983 383.448 128.517 383.348 129.05L380.698 145H377.898L380.498 129.35C380.598 128.783 380.664 128.25 380.698 127.75C380.731 127.25 380.748 126.817 380.748 126.45C380.748 124.717 380.331 123.4 379.498 122.5C378.698 121.567 377.481 121.1 375.848 121.1C373.548 121.1 371.564 122.083 369.898 124.05C369.398 124.65 368.831 125.467 368.198 126.5C367.564 127.5 367.114 128.733 366.848 130.2L364.398 145H361.598ZM407.778 145L408.778 139.05H408.628C407.628 141.017 406.411 142.6 404.978 143.8C403.578 145 401.745 145.6 399.478 145.6C396.778 145.6 394.711 144.733 393.278 143C391.878 141.233 391.178 138.783 391.178 135.65C391.178 133.617 391.411 131.6 391.878 129.6C392.378 127.567 393.128 125.733 394.128 124.1C395.128 122.467 396.378 121.15 397.878 120.15C399.411 119.117 401.228 118.6 403.328 118.6C405.395 118.6 407.078 119.05 408.378 119.95C409.711 120.85 410.645 122.1 411.178 123.7H411.328L412.078 119.2H414.878L410.578 145H407.778ZM400.278 143.1C401.345 143.1 402.378 142.9 403.378 142.5C404.378 142.1 405.311 141.467 406.178 140.6C406.945 139.8 407.645 138.85 408.278 137.75C408.945 136.617 409.395 135.35 409.628 133.95L410.728 127.5C410.861 126.633 410.811 125.817 410.578 125.05C410.378 124.25 409.995 123.567 409.428 123C408.861 122.4 408.111 121.933 407.178 121.6C406.278 121.267 405.228 121.1 404.028 121.1C402.728 121.1 401.545 121.333 400.478 121.8C399.445 122.267 398.528 122.917 397.728 123.75C396.961 124.55 396.328 125.517 395.828 126.65C395.328 127.783 394.961 129.017 394.728 130.35L394.178 133.5C394.111 133.967 394.061 134.4 394.028 134.8C393.995 135.167 393.978 135.533 393.978 135.9C393.978 138 394.478 139.733 395.478 141.1C396.511 142.433 398.111 143.1 400.278 143.1ZM428.559 155.6C426.559 155.6 424.842 155.3 423.409 154.7C421.975 154.1 420.825 153.25 419.959 152.15L421.909 150.25C422.609 151.15 423.492 151.85 424.559 152.35C425.659 152.85 427.042 153.1 428.709 153.1C431.209 153.1 433.225 152.467 434.759 151.2C436.325 149.933 437.342 147.8 437.809 144.8L438.859 138.5H438.709C437.742 140.5 436.525 142.1 435.059 143.3C433.625 144.5 431.775 145.1 429.509 145.1C426.775 145.1 424.692 144.217 423.259 142.45C421.859 140.683 421.159 138.283 421.159 135.25C421.159 133.25 421.409 131.267 421.909 129.3C422.409 127.3 423.159 125.517 424.159 123.95C425.159 122.35 426.409 121.067 427.909 120.1C429.442 119.1 431.242 118.6 433.309 118.6C435.375 118.6 437.059 119.067 438.359 120C439.692 120.9 440.625 122.15 441.159 123.75H441.309L442.059 119.2H444.859L440.509 145.35C439.875 148.95 438.509 151.55 436.409 153.15C434.342 154.783 431.725 155.6 428.559 155.6ZM430.309 142.6C431.409 142.6 432.459 142.417 433.459 142.05C434.459 141.65 435.392 140.983 436.259 140.05C436.925 139.383 437.592 138.5 438.259 137.4C438.959 136.267 439.442 134.95 439.709 133.45L440.709 127.5C440.842 126.633 440.792 125.817 440.559 125.05C440.359 124.25 439.959 123.567 439.359 123C438.792 122.4 438.059 121.933 437.159 121.6C436.259 121.267 435.209 121.1 434.009 121.1C431.409 121.1 429.325 121.95 427.759 123.65C426.192 125.35 425.175 127.55 424.709 130.25L424.259 132.9C424.192 133.367 424.125 133.783 424.059 134.15C424.025 134.517 424.009 134.883 424.009 135.25C424.009 137.45 424.509 139.233 425.509 140.6C426.542 141.933 428.142 142.6 430.309 142.6ZM461.789 145.6C458.589 145.6 456.139 144.683 454.439 142.85C452.739 140.983 451.889 138.2 451.889 134.5C451.889 132.233 452.222 130.133 452.889 128.2C453.556 126.267 454.489 124.583 455.689 123.15C456.922 121.717 458.372 120.6 460.039 119.8C461.739 119 463.606 118.6 465.639 118.6C468.172 118.6 470.206 119.183 471.739 120.35C473.306 121.483 474.089 123.117 474.089 125.25C474.089 126.117 473.872 127.033 473.439 128C473.039 128.967 472.172 129.867 470.839 130.7C469.506 131.533 467.556 132.25 464.989 132.85C462.456 133.45 459.072 133.8 454.839 133.9C454.806 134.167 454.789 134.417 454.789 134.65C454.789 134.883 454.789 135.033 454.789 135.1C454.789 136.2 454.889 137.233 455.089 138.2C455.322 139.167 455.706 140.033 456.239 140.8C456.806 141.533 457.556 142.117 458.489 142.55C459.422 142.983 460.606 143.2 462.039 143.2C464.039 143.2 465.739 142.683 467.139 141.65C468.539 140.617 469.889 139.033 471.189 136.9L473.239 138.15C471.806 140.65 470.189 142.517 468.389 143.75C466.589 144.983 464.389 145.6 461.789 145.6ZM465.339 120.95C462.706 120.95 460.472 121.817 458.639 123.55C456.806 125.25 455.656 127.717 455.189 130.95L455.039 131.85C458.506 131.75 461.289 131.5 463.389 131.1C465.522 130.7 467.172 130.2 468.339 129.6C469.506 128.967 470.272 128.283 470.639 127.55C471.039 126.817 471.239 126.083 471.239 125.35C471.239 124.117 470.789 123.083 469.889 122.25C468.989 121.383 467.472 120.95 465.339 120.95ZM487.62 145L491.57 121.6H483.67L484.07 119.2H494.72L493.72 125.1H493.97C494.403 124.2 494.886 123.4 495.42 122.7C495.986 121.967 496.62 121.35 497.32 120.85C498.053 120.317 498.87 119.917 499.77 119.65C500.703 119.35 501.77 119.2 502.97 119.2H507.67L507.22 121.95H502.22C499.686 121.95 497.67 122.683 496.17 124.15C495.603 124.617 494.986 125.333 494.32 126.3C493.653 127.233 493.203 128.4 492.97 129.8L490.42 145H487.62Z" fill="white"/>
<path fill-rule="evenodd" clip-rule="evenodd" d="M8 10.6667C8 6.93298 8 5.06614 8.72662 3.64006C9.36578 2.38565 10.3856 1.36578 11.6401 0.726623C13.0661 0 14.933 0 18.6667 0H77.3333C81.067 0 82.9339 0 84.3599 0.726623C85.6143 1.36578 86.6342 2.38565 87.2734 3.64006C88 5.06614 88 6.93298 88 10.6667V69.3333C88 73.067 88 74.9339 87.2734 76.3599C86.6342 77.6143 85.6143 78.6342 84.3599 79.2734C82.9339 80 81.067 80 77.3333 80H18.6667C14.933 80 13.0661 80 11.6401 79.2734C10.3856 78.6342 9.36578 77.6143 8.72662 76.3599C8 74.9339 8 73.067 8 69.3333V10.6667ZM24.6665 16.6665H71.3332V23.3332H24.6665V16.6665ZM71.3332 36.6665H24.6665V43.3332H71.3332V36.6665ZM24.6665 56.6665H71.3332V63.3332H24.6665V56.6665Z" fill="white"/>
<path d="M449.478 16.4401C446.766 16.4401 444.862 15.9219 443.765 14.8855C442.732 13.849 442.215 12.5859 442.215 11.096C442.215 10.7721 442.248 10.3511 442.312 9.83285C442.377 9.31463 442.474 8.60207 442.603 7.69519C442.925 5.81665 443.7 4.35916 444.927 3.32272C446.218 2.22151 448.219 1.6709 450.93 1.6709C453.641 1.6709 455.513 2.18912 456.546 3.22556C457.643 4.26199 458.192 5.52515 458.192 7.01503C458.192 7.33891 458.16 7.75997 458.095 8.27819C458.031 8.79641 457.934 9.50896 457.805 10.4158C457.482 12.2944 456.675 13.7843 455.384 14.8855C454.158 15.9219 452.189 16.4401 449.478 16.4401Z" fill="white"/>
<path d="M444.636 75.7114C441.15 75.7114 438.504 74.8045 436.696 72.9907C434.889 71.1122 433.985 68.6183 433.985 65.509C433.985 64.6021 434.049 63.6628 434.179 62.6911C434.308 61.7195 434.534 60.4563 434.856 58.9017L439.601 34.1243H423.527L425.173 24.4077H453.544L445.701 65.4118L447.541 65.9948L462.743 51.3227L462.846 51.4155L467.331 24.4077H479.532L477.595 36.262H478.079C479.887 32.3106 482.049 29.1689 484.567 26.8369C487.149 24.4401 490.441 23.2418 494.444 23.2418C496.767 23.2418 498.769 23.6304 500.447 24.4077C502.19 25.1203 503.61 26.1243 504.707 27.4199C505.805 28.7154 506.612 30.2701 507.128 32.0839C507.709 33.8328 508 35.7114 508 37.7195C508 40.1162 507.677 43.2256 507.031 47.0474L502.48 74.5454H490.28L495.025 45.8814C495.154 44.9745 495.283 44.0029 495.412 42.9664C495.606 41.93 495.702 40.8936 495.702 39.8571C495.702 38.0434 495.218 36.4239 494.25 34.9988C493.282 33.5737 491.603 32.8612 489.215 32.8612C487.343 32.8612 485.729 33.3146 484.373 34.2215C483.018 35.0636 481.727 36.2296 480.5 37.7195C479.79 38.6264 478.886 40.0191 477.789 41.8976C476.692 43.7114 475.949 45.7843 475.562 48.1162L471.205 74.5454H459.004L460.217 67.2441C457.621 69.8101 455.268 71.758 453.157 73.0879C450.446 74.8369 447.605 75.7114 444.636 75.7114Z" fill="white"/>
<path d="M149.695 38.7186C152.005 39.9086 153.885 41.3586 155.275 43.0186L155.255 43.0286C156.715 44.6886 157.755 46.5786 158.355 48.6486C158.945 50.6886 159.245 52.8586 159.245 55.0986C159.245 61.5086 157.105 66.5986 152.875 70.2486C148.735 73.8686 142.755 75.7086 135.115 75.7086C128.985 75.7086 123.885 74.5786 119.955 72.3386C116.035 70.0486 112.765 67.0886 110.215 63.5486L109.945 63.1686L116.605 57.6886L116.925 58.0886C119.515 61.3286 122.275 63.7686 125.105 65.3486C127.985 66.9186 131.455 67.7186 135.415 67.7186C140.175 67.7186 143.835 66.6086 146.315 64.4386C148.765 62.2786 150.015 59.1986 150.015 55.2886C150.015 52.1386 149.115 49.6786 147.355 47.9686C145.565 46.1686 142.365 44.8786 137.845 44.1186L130.295 42.8586C126.965 42.2686 124.115 41.3686 121.825 40.1886C119.575 38.9986 117.735 37.5486 116.345 35.8886C114.945 34.1586 113.945 32.2686 113.345 30.2686C112.755 28.2186 112.455 26.0786 112.455 23.9086C112.455 17.5586 114.565 12.6886 118.745 9.42859C122.885 6.19861 128.525 4.55859 135.515 4.55859C140.985 4.55859 145.655 5.48859 149.385 7.32861C153.195 9.16858 156.285 11.8086 158.585 15.1686L158.835 15.5386L152.385 21.1386L152.065 20.7186C150.245 18.3186 148.015 16.3286 145.435 14.8186C142.875 13.3186 139.515 12.5586 135.425 12.5586C130.985 12.5586 127.535 13.5086 125.185 15.3686C122.865 17.1986 121.695 20.0086 121.695 23.7186C121.695 26.6186 122.565 29.0186 124.275 30.8586C126.045 32.6386 129.315 33.9686 133.965 34.7886L141.225 36.0486C144.555 36.6386 147.405 37.5386 149.695 38.7186Z" fill="white"/>
<path d="M189.495 63.0685L196.675 44.7184L196.695 44.7285L205.245 23.4185H214.075L189.005 85.2285C188.415 86.6885 187.745 87.9584 187.015 89.0184C186.285 90.1685 185.385 91.0984 184.365 91.7784C183.365 92.5085 182.135 93.0585 180.715 93.3984C179.335 93.7985 177.665 93.9985 175.755 93.9985H167.895V86.3884H179.675L185.085 73.0884L164.735 23.4185H173.755L182.305 44.7184L189.495 63.0685Z" fill="white"/>
<path d="M249.835 46.2488C251.875 46.7188 253.786 47.4888 255.506 48.5488V48.5588C257.236 49.5588 258.686 50.9587 259.825 52.6988C261.026 54.4488 261.646 56.7688 261.646 59.5788C261.646 64.7188 259.625 68.7388 255.625 71.5488C251.746 74.3188 246.506 75.7188 240.036 75.7188C234.756 75.7188 230.125 74.8188 226.266 73.0488C222.476 71.2188 219.196 68.7588 216.516 65.7388L216.186 65.3588L222.156 60.1487L222.486 60.4988C224.825 62.9688 227.416 64.8888 230.186 66.2188C232.946 67.5388 236.466 68.2087 240.236 68.2087C244.006 68.2087 247.115 67.5388 249.486 66.2288C251.855 64.8888 253.006 62.8688 253.006 60.0588C253.006 58.8588 252.776 57.8688 252.306 57.1088C251.875 56.2588 251.286 55.6088 250.536 55.1388C249.746 54.6487 248.845 54.2787 247.865 54.0287C246.835 53.7087 245.746 53.4488 244.615 53.2588L236.786 52.0887C235.046 51.8387 233.105 51.4788 231.036 51.0188C228.996 50.5588 227.085 49.8188 225.375 48.8288C223.635 47.7488 222.146 46.3288 220.956 44.5988C219.796 42.8288 219.216 40.5188 219.216 37.7087C219.216 35.1088 219.726 32.8387 220.726 30.9587C221.796 29.0188 223.286 27.3888 225.146 26.1188C226.996 24.7988 229.196 23.8288 231.706 23.2288C234.176 22.5688 236.916 22.2388 239.855 22.2388C244.426 22.2388 248.436 22.9688 251.776 24.4188C255.176 25.8588 258.125 27.8888 260.556 30.4587L260.896 30.8188L255.105 36.2888L254.766 35.8688C254.216 35.1888 253.486 34.4988 252.615 33.8088C251.796 33.0488 250.766 32.3888 249.526 31.8288C248.315 31.1888 246.896 30.6888 245.266 30.3088C243.625 29.9288 241.716 29.7388 239.565 29.7388C235.746 29.7388 232.776 30.3987 230.736 31.6988C228.806 32.9688 227.865 34.7787 227.865 37.2087C227.865 38.4188 228.075 39.4587 228.486 40.2888C228.936 41.0188 229.565 41.6588 230.335 42.1288C231.135 42.6188 232.036 43.0287 233.026 43.3387C234.075 43.5887 235.176 43.8188 236.256 44.0088L244.085 45.1688C245.896 45.4288 247.825 45.7888 249.835 46.2488Z" fill="white"/>
<path d="M276.685 5.72852H285.145V23.4085H303.895V31.0185H285.145V66.9485H303.895V74.5585H287.935C283.985 74.5585 281.025 73.4185 279.125 71.1785C277.315 68.9585 276.395 66.0685 276.395 62.5985V31.0285H268.745V23.4185H272.635C274.165 23.4185 275.215 23.1385 275.765 22.5885C276.375 21.9785 276.685 20.8885 276.685 19.3485V5.72852Z" fill="white"/>
<path fill-rule="evenodd" clip-rule="evenodd" d="M342.265 24.1385C345.095 25.3885 347.535 27.1585 349.505 29.4085L349.495 29.4285C351.465 31.5985 352.995 34.2385 354.045 37.2686C355.095 40.2885 355.625 43.6486 355.625 47.2485V51.4385H318.635V53.2686C318.635 55.3986 318.975 57.3986 319.665 59.2086C320.355 61.0186 321.325 62.5886 322.565 63.8986C323.865 65.1985 325.435 66.2385 327.235 66.9885C329.085 67.6685 331.185 68.0186 333.435 68.0186C336.685 68.0186 339.525 67.2686 341.885 65.7686C344.245 64.2686 346.075 62.1785 347.315 59.5585L347.565 59.0286L354.105 63.4785L353.935 63.8585C352.415 67.3085 349.835 70.1885 346.285 72.4385C342.805 74.6185 338.475 75.7185 333.435 75.7185C329.765 75.7185 326.405 75.0786 323.455 73.8286C320.565 72.5685 318.025 70.7686 315.925 68.4586C313.885 66.0786 312.285 63.2485 311.175 60.0286C310.065 56.7485 309.505 53.1285 309.505 49.0786C309.505 45.0286 310.065 41.3185 311.175 38.0385C312.355 34.7485 313.985 31.9185 316.015 29.6085C318.055 27.2385 320.525 25.3986 323.355 24.1385C326.255 22.8885 329.545 22.2485 332.955 22.2485C336.365 22.2485 339.505 22.8885 342.265 24.1385ZM318.645 44.4085V44.5886H346.315V44.0186C346.315 41.8885 345.965 39.9285 345.285 38.1785C344.655 36.4285 343.745 34.9185 342.575 33.6785C341.455 32.3685 340.055 31.3685 338.395 30.6885C336.775 30.0085 335.015 29.6585 332.965 29.6585C330.915 29.6585 328.995 30.0286 327.255 30.7786C325.515 31.5286 323.965 32.5685 322.665 33.8785C321.435 35.1785 320.425 36.7686 319.675 38.5786C318.995 40.3185 318.645 42.2785 318.645 44.4085Z" fill="white"/>
<path d="M404.186 22.2388C408.446 22.2388 411.336 23.7688 412.776 26.7988C414.226 29.6988 414.956 33.8987 414.956 39.2588V74.5488H406.786V40.5287C406.786 36.3588 406.356 33.4688 405.496 31.9288C404.726 30.3987 403.326 29.6588 401.186 29.6588C399.246 29.6588 397.716 30.2688 396.516 31.5388C395.316 32.7388 394.716 34.6487 394.716 37.2188V74.5488H386.546V40.5287C386.546 36.3588 386.116 33.4688 385.256 31.9288C384.496 30.3987 383.116 29.6588 381.046 29.6588C379.096 29.6588 377.536 30.2787 376.266 31.5488C375.076 32.7388 374.476 34.6487 374.476 37.2188V74.5488H366.306V23.4088H374.476V28.2688C375.216 26.8088 376.166 25.5188 377.306 24.4188C378.816 22.9688 380.916 22.2388 383.946 22.2388C386.976 22.2388 389.286 23.0388 390.796 24.6288C392.046 25.8688 392.896 27.4688 393.336 29.3788C394.236 27.4988 395.426 25.8987 396.886 24.5988C398.646 23.0287 401.106 22.2388 404.186 22.2388Z" fill="white"/>
</svg>
