<svg width="500" height="132" viewBox="0 0 500 132" fill="none" xmlns="http://www.w3.org/2000/svg">
<path fill-rule="evenodd" clip-rule="evenodd" d="M0 10.6667C0 6.93298 0 5.06614 0.726623 3.64006C1.36578 2.38565 2.38565 1.36578 3.64006 0.726623C5.06614 0 6.93298 0 10.6667 0H69.3333C73.067 0 74.9339 0 76.3599 0.726623C77.6143 1.36578 78.6342 2.38565 79.2734 3.64006C80 5.06614 80 6.93298 80 10.6667V69.3333C80 73.067 80 74.9339 79.2734 76.3599C78.6342 77.6143 77.6143 78.6342 76.3599 79.2734C74.9339 80 73.067 80 69.3333 80H10.6667C6.93298 80 5.06614 80 3.64006 79.2734C2.38565 78.6342 1.36578 77.6143 0.726623 76.3599C0 74.9339 0 73.067 0 69.3333V10.6667ZM16.6665 16.6665H63.3332V23.3332H16.6665V16.6665ZM63.3332 36.6665H16.6665V43.3332H63.3332V36.6665ZM16.6665 56.6665H63.3332V63.3332H16.6665V56.6665Z" fill="white"/>
<path d="M441.478 16.4401C438.766 16.4401 436.862 15.9219 435.765 14.8855C434.732 13.849 434.215 12.5859 434.215 11.096C434.215 10.7721 434.248 10.3511 434.312 9.83285C434.377 9.31463 434.474 8.60207 434.603 7.69519C434.925 5.81665 435.7 4.35916 436.927 3.32272C438.218 2.22151 440.219 1.6709 442.93 1.6709C445.641 1.6709 447.513 2.18912 448.546 3.22556C449.643 4.26199 450.192 5.52515 450.192 7.01503C450.192 7.33891 450.16 7.75997 450.095 8.27819C450.031 8.79641 449.934 9.50896 449.805 10.4158C449.482 12.2944 448.675 13.7843 447.384 14.8855C446.158 15.9219 444.189 16.4401 441.478 16.4401Z" fill="white"/>
<path d="M436.636 75.7114C433.15 75.7114 430.504 74.8045 428.696 72.9907C426.889 71.1122 425.985 68.6183 425.985 65.509C425.985 64.6021 426.049 63.6628 426.179 62.6911C426.308 61.7195 426.534 60.4563 426.856 58.9017L431.601 34.1243H415.527L417.173 24.4077H445.544L437.701 65.4118L439.541 65.9948L454.743 51.3227L454.846 51.4155L459.331 24.4077H471.532L469.595 36.262H470.079C471.887 32.3106 474.049 29.1689 476.567 26.8369C479.149 24.4401 482.441 23.2418 486.444 23.2418C488.767 23.2418 490.769 23.6304 492.447 24.4077C494.19 25.1203 495.61 26.1243 496.707 27.4199C497.805 28.7154 498.612 30.2701 499.128 32.0839C499.709 33.8328 500 35.7114 500 37.7195C500 40.1162 499.677 43.2256 499.031 47.0474L494.48 74.5454H482.28L487.025 45.8814C487.154 44.9745 487.283 44.0029 487.412 42.9664C487.606 41.93 487.702 40.8936 487.702 39.8571C487.702 38.0434 487.218 36.4239 486.25 34.9988C485.282 33.5737 483.603 32.8612 481.215 32.8612C479.343 32.8612 477.729 33.3146 476.373 34.2215C475.018 35.0636 473.727 36.2296 472.5 37.7195C471.79 38.6264 470.886 40.0191 469.789 41.8976C468.692 43.7114 467.949 45.7843 467.562 48.1162L463.205 74.5454H451.004L452.217 67.2441C449.621 69.8101 447.268 71.758 445.157 73.0879C442.446 74.8369 439.605 75.7114 436.636 75.7114Z" fill="white"/>
<path d="M141.695 38.7186C144.005 39.9086 145.885 41.3586 147.275 43.0186L147.255 43.0286C148.715 44.6886 149.755 46.5786 150.355 48.6486C150.945 50.6886 151.245 52.8586 151.245 55.0986C151.245 61.5086 149.105 66.5986 144.875 70.2486C140.735 73.8686 134.755 75.7086 127.115 75.7086C120.985 75.7086 115.885 74.5786 111.955 72.3386C108.035 70.0486 104.765 67.0886 102.215 63.5486L101.945 63.1686L108.605 57.6886L108.925 58.0886C111.515 61.3286 114.275 63.7686 117.105 65.3486C119.985 66.9186 123.455 67.7186 127.415 67.7186C132.175 67.7186 135.835 66.6086 138.315 64.4386C140.765 62.2786 142.015 59.1986 142.015 55.2886C142.015 52.1386 141.115 49.6786 139.355 47.9686C137.565 46.1686 134.365 44.8786 129.845 44.1186L122.295 42.8586C118.965 42.2686 116.115 41.3686 113.825 40.1886C111.575 38.9986 109.735 37.5486 108.345 35.8886C106.945 34.1586 105.945 32.2686 105.345 30.2686C104.755 28.2186 104.455 26.0786 104.455 23.9086C104.455 17.5586 106.565 12.6886 110.745 9.42859C114.885 6.19861 120.525 4.55859 127.515 4.55859C132.985 4.55859 137.655 5.48859 141.385 7.32861C145.195 9.16858 148.285 11.8086 150.585 15.1686L150.835 15.5386L144.385 21.1386L144.065 20.7186C142.245 18.3186 140.015 16.3286 137.435 14.8186C134.875 13.3186 131.515 12.5586 127.425 12.5586C122.985 12.5586 119.535 13.5086 117.185 15.3686C114.865 17.1986 113.695 20.0086 113.695 23.7186C113.695 26.6186 114.565 29.0186 116.275 30.8586C118.045 32.6386 121.315 33.9686 125.965 34.7886L133.225 36.0486C136.555 36.6386 139.405 37.5386 141.695 38.7186Z" fill="white"/>
<path d="M181.495 63.0685L188.675 44.7184L188.695 44.7285L197.245 23.4185H206.075L181.005 85.2285C180.415 86.6885 179.745 87.9584 179.015 89.0184C178.285 90.1685 177.385 91.0984 176.365 91.7784C175.365 92.5085 174.135 93.0585 172.715 93.3984C171.335 93.7985 169.665 93.9985 167.755 93.9985H159.895V86.3884H171.675L177.085 73.0884L156.735 23.4185H165.755L174.305 44.7184L181.495 63.0685Z" fill="white"/>
<path d="M241.835 46.2488C243.875 46.7188 245.786 47.4888 247.506 48.5488V48.5588C249.236 49.5588 250.686 50.9587 251.825 52.6988C253.026 54.4488 253.646 56.7688 253.646 59.5788C253.646 64.7188 251.625 68.7388 247.625 71.5488C243.746 74.3188 238.506 75.7188 232.036 75.7188C226.756 75.7188 222.125 74.8188 218.266 73.0488C214.476 71.2188 211.196 68.7588 208.516 65.7388L208.186 65.3588L214.156 60.1487L214.486 60.4988C216.825 62.9688 219.416 64.8888 222.186 66.2188C224.946 67.5388 228.466 68.2087 232.236 68.2087C236.006 68.2087 239.115 67.5388 241.486 66.2288C243.855 64.8888 245.006 62.8688 245.006 60.0588C245.006 58.8588 244.776 57.8688 244.306 57.1088C243.875 56.2588 243.286 55.6088 242.536 55.1388C241.746 54.6487 240.845 54.2787 239.865 54.0287C238.835 53.7087 237.746 53.4488 236.615 53.2588L228.786 52.0887C227.046 51.8387 225.105 51.4788 223.036 51.0188C220.996 50.5588 219.085 49.8188 217.375 48.8288C215.635 47.7488 214.146 46.3288 212.956 44.5988C211.796 42.8288 211.216 40.5188 211.216 37.7087C211.216 35.1088 211.726 32.8387 212.726 30.9587C213.796 29.0188 215.286 27.3888 217.146 26.1188C218.996 24.7988 221.196 23.8288 223.706 23.2288C226.176 22.5688 228.916 22.2388 231.855 22.2388C236.426 22.2388 240.436 22.9688 243.776 24.4188C247.176 25.8588 250.125 27.8888 252.556 30.4587L252.896 30.8188L247.105 36.2888L246.766 35.8688C246.216 35.1888 245.486 34.4988 244.615 33.8088C243.796 33.0488 242.766 32.3888 241.526 31.8288C240.315 31.1888 238.896 30.6888 237.266 30.3088C235.625 29.9288 233.716 29.7388 231.565 29.7388C227.746 29.7388 224.776 30.3987 222.736 31.6988C220.806 32.9688 219.865 34.7787 219.865 37.2087C219.865 38.4188 220.075 39.4587 220.486 40.2888C220.936 41.0188 221.565 41.6588 222.335 42.1288C223.135 42.6188 224.036 43.0287 225.026 43.3387C226.075 43.5887 227.176 43.8188 228.256 44.0088L236.085 45.1688C237.896 45.4288 239.825 45.7888 241.835 46.2488Z" fill="white"/>
<path d="M268.685 5.72852H277.145V23.4085H295.895V31.0185H277.145V66.9485H295.895V74.5585H279.935C275.985 74.5585 273.025 73.4185 271.125 71.1785C269.315 68.9585 268.395 66.0685 268.395 62.5985V31.0285H260.745V23.4185H264.635C266.165 23.4185 267.215 23.1385 267.765 22.5885C268.375 21.9785 268.685 20.8885 268.685 19.3485V5.72852Z" fill="white"/>
<path fill-rule="evenodd" clip-rule="evenodd" d="M334.265 24.1385C337.095 25.3885 339.535 27.1585 341.505 29.4085L341.495 29.4285C343.465 31.5985 344.995 34.2385 346.045 37.2686C347.095 40.2885 347.625 43.6486 347.625 47.2485V51.4385H310.635V53.2686C310.635 55.3986 310.975 57.3986 311.665 59.2086C312.355 61.0186 313.325 62.5886 314.565 63.8986C315.865 65.1985 317.435 66.2385 319.235 66.9885C321.085 67.6685 323.185 68.0186 325.435 68.0186C328.685 68.0186 331.525 67.2686 333.885 65.7686C336.245 64.2686 338.075 62.1785 339.315 59.5585L339.565 59.0286L346.105 63.4785L345.935 63.8585C344.415 67.3085 341.835 70.1885 338.285 72.4385C334.805 74.6185 330.475 75.7185 325.435 75.7185C321.765 75.7185 318.405 75.0786 315.455 73.8286C312.565 72.5685 310.025 70.7686 307.925 68.4586C305.885 66.0786 304.285 63.2485 303.175 60.0286C302.065 56.7485 301.505 53.1285 301.505 49.0786C301.505 45.0286 302.065 41.3185 303.175 38.0385C304.355 34.7485 305.985 31.9185 308.015 29.6085C310.055 27.2385 312.525 25.3986 315.355 24.1385C318.255 22.8885 321.545 22.2485 324.955 22.2485C328.365 22.2485 331.505 22.8885 334.265 24.1385ZM310.645 44.4085V44.5886H338.315V44.0186C338.315 41.8885 337.965 39.9285 337.285 38.1785C336.655 36.4285 335.745 34.9185 334.575 33.6785C333.455 32.3685 332.055 31.3685 330.395 30.6885C328.775 30.0085 327.015 29.6585 324.965 29.6585C322.915 29.6585 320.995 30.0286 319.255 30.7786C317.515 31.5286 315.965 32.5685 314.665 33.8785C313.435 35.1785 312.425 36.7686 311.675 38.5786C310.995 40.3185 310.645 42.2785 310.645 44.4085Z" fill="white"/>
<path d="M396.186 22.2388C400.446 22.2388 403.336 23.7688 404.776 26.7988C406.226 29.6988 406.956 33.8987 406.956 39.2588V74.5488H398.786V40.5287C398.786 36.3588 398.356 33.4688 397.496 31.9288C396.726 30.3987 395.326 29.6588 393.186 29.6588C391.246 29.6588 389.716 30.2688 388.516 31.5388C387.316 32.7388 386.716 34.6487 386.716 37.2188V74.5488H378.546V40.5287C378.546 36.3588 378.116 33.4688 377.256 31.9288C376.496 30.3987 375.116 29.6588 373.046 29.6588C371.096 29.6588 369.536 30.2787 368.266 31.5488C367.076 32.7388 366.476 34.6487 366.476 37.2188V74.5488H358.306V23.4088H366.476V28.2688C367.216 26.8088 368.166 25.5188 369.306 24.4188C370.816 22.9688 372.916 22.2388 375.946 22.2388C378.976 22.2388 381.286 23.0388 382.796 24.6288C384.046 25.8688 384.896 27.4688 385.336 29.3788C386.236 27.4988 387.426 25.8987 388.886 24.5988C390.646 23.0287 393.106 22.2388 396.186 22.2388Z" fill="white"/>
<path d="M252.52 125.36C250.52 125.36 249.01 124.75 247.99 123.53C246.99 122.31 246.49 120.48 246.49 118.04C246.49 117.08 246.55 116.06 246.67 114.98C246.81 113.9 247.02 112.83 247.3 111.77C247.6 110.71 247.98 109.69 248.44 108.71C248.9 107.73 249.47 106.87 250.15 106.13C250.83 105.39 251.62 104.8 252.52 104.36C253.42 103.92 254.45 103.7 255.61 103.7C256.49 103.7 257.25 103.82 257.89 104.06C258.53 104.3 259.06 104.63 259.48 105.05C259.92 105.47 260.27 105.96 260.53 106.52C260.81 107.06 261.02 107.63 261.16 108.23L259.57 108.74C259.45 108.24 259.29 107.78 259.09 107.36C258.89 106.92 258.63 106.55 258.31 106.25C257.99 105.93 257.6 105.69 257.14 105.53C256.7 105.35 256.15 105.26 255.49 105.26C253.75 105.26 252.31 105.95 251.17 107.33C250.05 108.69 249.29 110.6 248.89 113.06L248.47 115.52C248.37 116.04 248.3 116.54 248.26 117.02C248.24 117.5 248.23 117.97 248.23 118.43C248.23 120.13 248.59 121.45 249.31 122.39C250.05 123.33 251.18 123.8 252.7 123.8C253.94 123.8 254.96 123.46 255.76 122.78C256.58 122.08 257.38 121.02 258.16 119.6L259.57 120.32C258.73 121.96 257.77 123.21 256.69 124.07C255.61 124.93 254.22 125.36 252.52 125.36Z" fill="white"/>
<path d="M269.938 125.36C268.978 125.36 268.128 125.21 267.388 124.91C266.668 124.59 266.068 124.16 265.588 123.62C265.108 123.06 264.738 122.4 264.478 121.64C264.238 120.86 264.118 120.02 264.118 119.12C264.118 117.58 264.318 116.2 264.718 114.98C265.118 113.74 265.668 112.69 266.368 111.83C267.068 110.97 267.898 110.31 268.858 109.85C269.838 109.39 270.898 109.16 272.038 109.16C272.998 109.16 273.838 109.32 274.558 109.64C275.298 109.94 275.908 110.37 276.388 110.93C276.868 111.47 277.228 112.13 277.468 112.91C277.728 113.67 277.858 114.5 277.858 115.4C277.858 116.94 277.658 118.33 277.258 119.57C276.858 120.79 276.308 121.83 275.608 122.69C274.908 123.55 274.068 124.21 273.088 124.67C272.128 125.13 271.078 125.36 269.938 125.36ZM270.058 123.89C271.638 123.89 272.908 123.39 273.868 122.39C274.848 121.39 275.478 120.01 275.758 118.25L276.028 116.57C276.088 116.23 276.128 115.95 276.148 115.73C276.168 115.51 276.178 115.27 276.178 115.01C276.178 113.63 275.818 112.56 275.098 111.8C274.378 111.02 273.318 110.63 271.918 110.63C270.338 110.63 269.058 111.13 268.078 112.13C267.118 113.13 266.498 114.51 266.218 116.27L265.948 117.95C265.888 118.29 265.848 118.57 265.828 118.79C265.808 119.01 265.798 119.25 265.798 119.51C265.798 120.89 266.158 121.97 266.878 122.75C267.598 123.51 268.658 123.89 270.058 123.89Z" fill="white"/>
<path d="M282.077 125L284.657 109.52H286.337L285.737 113.09H285.857C286.437 111.87 287.137 110.91 287.957 110.21C288.797 109.51 289.857 109.16 291.137 109.16C292.457 109.16 293.477 109.55 294.197 110.33C294.937 111.09 295.307 112.16 295.307 113.54C295.307 113.82 295.287 114.13 295.247 114.47C295.227 114.79 295.187 115.11 295.127 115.43L293.537 125H291.857L293.417 115.61C293.477 115.27 293.517 114.95 293.537 114.65C293.557 114.35 293.567 114.09 293.567 113.87C293.567 112.83 293.317 112.04 292.817 111.5C292.337 110.94 291.607 110.66 290.627 110.66C289.247 110.66 288.057 111.25 287.057 112.43C286.757 112.79 286.417 113.28 286.037 113.9C285.657 114.5 285.387 115.24 285.227 116.12L283.757 125H282.077Z" fill="white"/>
<path d="M304.835 125.36C303.795 125.36 303.275 124.84 303.275 123.8C303.275 123.52 303.305 123.14 303.365 122.66L305.375 110.96H300.305L300.545 109.52H304.475C304.895 109.52 305.215 109.43 305.435 109.25C305.655 109.07 305.805 108.76 305.885 108.32L306.605 104.06H308.195L307.295 109.52H314.285L314.045 110.96H307.055L304.925 123.59L305.345 123.83L312.755 119.12L313.595 120.2L308.525 123.53C307.565 124.19 306.815 124.66 306.275 124.94C305.755 125.22 305.275 125.36 304.835 125.36Z" fill="white"/>
<path d="M324.203 125.36C322.283 125.36 320.813 124.81 319.793 123.71C318.773 122.59 318.263 120.92 318.263 118.7C318.263 117.34 318.463 116.08 318.863 114.92C319.263 113.76 319.823 112.75 320.543 111.89C321.283 111.03 322.153 110.36 323.153 109.88C324.173 109.4 325.293 109.16 326.513 109.16C328.033 109.16 329.253 109.51 330.173 110.21C331.113 110.89 331.583 111.87 331.583 113.15C331.583 113.67 331.453 114.22 331.193 114.8C330.953 115.38 330.433 115.92 329.633 116.42C328.833 116.92 327.663 117.35 326.123 117.71C324.603 118.07 322.573 118.28 320.033 118.34C320.013 118.5 320.003 118.65 320.003 118.79C320.003 118.93 320.003 119.02 320.003 119.06C320.003 119.72 320.063 120.34 320.183 120.92C320.323 121.5 320.553 122.02 320.873 122.48C321.213 122.92 321.663 123.27 322.223 123.53C322.783 123.79 323.493 123.92 324.353 123.92C325.553 123.92 326.573 123.61 327.413 122.99C328.253 122.37 329.063 121.42 329.843 120.14L331.073 120.89C330.213 122.39 329.243 123.51 328.163 124.25C327.083 124.99 325.763 125.36 324.203 125.36ZM326.333 110.57C324.753 110.57 323.413 111.09 322.313 112.13C321.213 113.15 320.523 114.63 320.243 116.57L320.153 117.11C322.233 117.05 323.903 116.9 325.163 116.66C326.443 116.42 327.433 116.12 328.133 115.76C328.833 115.38 329.293 114.97 329.513 114.53C329.753 114.09 329.873 113.65 329.873 113.21C329.873 112.47 329.603 111.85 329.063 111.35C328.523 110.83 327.613 110.57 326.333 110.57Z" fill="white"/>
<path d="M336.041 125L338.621 109.52H340.301L339.701 113.09H339.821C340.401 111.87 341.101 110.91 341.921 110.21C342.761 109.51 343.821 109.16 345.101 109.16C346.421 109.16 347.441 109.55 348.161 110.33C348.901 111.09 349.271 112.16 349.271 113.54C349.271 113.82 349.251 114.13 349.211 114.47C349.191 114.79 349.151 115.11 349.091 115.43L347.501 125H345.821L347.381 115.61C347.441 115.27 347.481 114.95 347.501 114.65C347.521 114.35 347.531 114.09 347.531 113.87C347.531 112.83 347.281 112.04 346.781 111.5C346.301 110.94 345.571 110.66 344.591 110.66C343.211 110.66 342.021 111.25 341.021 112.43C340.721 112.79 340.381 113.28 340.001 113.9C339.621 114.5 339.351 115.24 339.191 116.12L337.721 125H336.041Z" fill="white"/>
<path d="M358.8 125.36C357.76 125.36 357.24 124.84 357.24 123.8C357.24 123.52 357.27 123.14 357.33 122.66L359.34 110.96H354.27L354.51 109.52H358.44C358.86 109.52 359.18 109.43 359.4 109.25C359.62 109.07 359.77 108.76 359.85 108.32L360.57 104.06H362.16L361.26 109.52H368.25L368.01 110.96H361.02L358.89 123.59L359.31 123.83L366.72 119.12L367.56 120.2L362.49 123.53C361.53 124.19 360.78 124.66 360.24 124.94C359.72 125.22 359.24 125.36 358.8 125.36Z" fill="white"/>
<path d="M385.788 106.7H385.638L378.738 118.22L375.708 106.7H375.528L372.498 125H370.878L374.358 104.06H376.548L379.278 114.44H379.398L385.518 104.06H387.828L384.348 125H382.728L385.788 106.7Z" fill="white"/>
<path d="M399.726 125L400.326 121.43H400.236C399.636 122.61 398.906 123.56 398.046 124.28C397.206 125 396.106 125.36 394.746 125.36C393.126 125.36 391.886 124.84 391.026 123.8C390.186 122.74 389.766 121.27 389.766 119.39C389.766 118.17 389.906 116.96 390.186 115.76C390.486 114.54 390.936 113.44 391.536 112.46C392.136 111.48 392.886 110.69 393.786 110.09C394.706 109.47 395.796 109.16 397.056 109.16C398.296 109.16 399.306 109.43 400.086 109.97C400.886 110.51 401.446 111.26 401.766 112.22H401.856L402.306 109.52H403.986L401.406 125H399.726ZM395.226 123.86C395.866 123.86 396.486 123.74 397.086 123.5C397.686 123.26 398.246 122.88 398.766 122.36C399.226 121.88 399.646 121.31 400.026 120.65C400.426 119.97 400.696 119.21 400.836 118.37L401.496 114.5C401.576 113.98 401.546 113.49 401.406 113.03C401.286 112.55 401.056 112.14 400.716 111.8C400.376 111.44 399.926 111.16 399.366 110.96C398.826 110.76 398.196 110.66 397.476 110.66C396.696 110.66 395.986 110.8 395.346 111.08C394.726 111.36 394.176 111.75 393.696 112.25C393.236 112.73 392.856 113.31 392.556 113.99C392.256 114.67 392.036 115.41 391.896 116.21L391.566 118.1C391.526 118.38 391.496 118.64 391.476 118.88C391.456 119.1 391.446 119.32 391.446 119.54C391.446 120.8 391.746 121.84 392.346 122.66C392.966 123.46 393.926 123.86 395.226 123.86Z" fill="white"/>
<path d="M407.995 125L410.575 109.52H412.255L411.655 113.09H411.775C412.355 111.87 413.055 110.91 413.875 110.21C414.715 109.51 415.775 109.16 417.055 109.16C418.375 109.16 419.395 109.55 420.115 110.33C420.855 111.09 421.225 112.16 421.225 113.54C421.225 113.82 421.205 114.13 421.165 114.47C421.145 114.79 421.105 115.11 421.045 115.43L419.455 125H417.775L419.335 115.61C419.395 115.27 419.435 114.95 419.455 114.65C419.475 114.35 419.485 114.09 419.485 113.87C419.485 112.83 419.235 112.04 418.735 111.5C418.255 110.94 417.525 110.66 416.545 110.66C415.165 110.66 413.975 111.25 412.975 112.43C412.675 112.79 412.335 113.28 411.955 113.9C411.575 114.5 411.305 115.24 411.145 116.12L409.675 125H407.995Z" fill="white"/>
<path d="M435.703 125L436.303 121.43H436.213C435.613 122.61 434.883 123.56 434.023 124.28C433.183 125 432.083 125.36 430.723 125.36C429.103 125.36 427.863 124.84 427.003 123.8C426.163 122.74 425.743 121.27 425.743 119.39C425.743 118.17 425.883 116.96 426.163 115.76C426.463 114.54 426.913 113.44 427.513 112.46C428.113 111.48 428.863 110.69 429.763 110.09C430.683 109.47 431.773 109.16 433.033 109.16C434.273 109.16 435.283 109.43 436.063 109.97C436.863 110.51 437.423 111.26 437.743 112.22H437.833L438.283 109.52H439.963L437.383 125H435.703ZM431.203 123.86C431.843 123.86 432.463 123.74 433.063 123.5C433.663 123.26 434.223 122.88 434.743 122.36C435.203 121.88 435.623 121.31 436.003 120.65C436.403 119.97 436.673 119.21 436.813 118.37L437.473 114.5C437.553 113.98 437.523 113.49 437.383 113.03C437.263 112.55 437.033 112.14 436.693 111.8C436.353 111.44 435.903 111.16 435.343 110.96C434.803 110.76 434.173 110.66 433.453 110.66C432.673 110.66 431.963 110.8 431.323 111.08C430.703 111.36 430.153 111.75 429.673 112.25C429.213 112.73 428.833 113.31 428.533 113.99C428.233 114.67 428.013 115.41 427.873 116.21L427.543 118.1C427.503 118.38 427.473 118.64 427.453 118.88C427.433 119.1 427.423 119.32 427.423 119.54C427.423 120.8 427.723 121.84 428.323 122.66C428.943 123.46 429.903 123.86 431.203 123.86Z" fill="white"/>
<path d="M448.171 131.36C446.971 131.36 445.941 131.18 445.081 130.82C444.221 130.46 443.531 129.95 443.011 129.29L444.181 128.15C444.601 128.69 445.131 129.11 445.771 129.41C446.431 129.71 447.261 129.86 448.261 129.86C449.761 129.86 450.971 129.48 451.891 128.72C452.831 127.96 453.441 126.68 453.721 124.88L454.351 121.1H454.261C453.681 122.3 452.951 123.26 452.071 123.98C451.211 124.7 450.101 125.06 448.741 125.06C447.101 125.06 445.851 124.53 444.991 123.47C444.151 122.41 443.731 120.97 443.731 119.15C443.731 117.95 443.881 116.76 444.181 115.58C444.481 114.38 444.931 113.31 445.531 112.37C446.131 111.41 446.881 110.64 447.781 110.06C448.701 109.46 449.781 109.16 451.021 109.16C452.261 109.16 453.271 109.44 454.051 110C454.851 110.54 455.411 111.29 455.731 112.25H455.821L456.271 109.52H457.951L455.341 125.21C454.961 127.37 454.141 128.93 452.881 129.89C451.641 130.87 450.071 131.36 448.171 131.36ZM449.221 123.56C449.881 123.56 450.511 123.45 451.111 123.23C451.711 122.99 452.271 122.59 452.791 122.03C453.191 121.63 453.591 121.1 453.991 120.44C454.411 119.76 454.701 118.97 454.861 118.07L455.461 114.5C455.541 113.98 455.511 113.49 455.371 113.03C455.251 112.55 455.011 112.14 454.651 111.8C454.311 111.44 453.871 111.16 453.331 110.96C452.791 110.76 452.161 110.66 451.441 110.66C449.881 110.66 448.631 111.17 447.691 112.19C446.751 113.21 446.141 114.53 445.861 116.15L445.591 117.74C445.551 118.02 445.511 118.27 445.471 118.49C445.451 118.71 445.441 118.93 445.441 119.15C445.441 120.47 445.741 121.54 446.341 122.36C446.961 123.16 447.921 123.56 449.221 123.56Z" fill="white"/>
<path d="M468.109 125.36C466.189 125.36 464.719 124.81 463.699 123.71C462.679 122.59 462.169 120.92 462.169 118.7C462.169 117.34 462.369 116.08 462.769 114.92C463.169 113.76 463.729 112.75 464.449 111.89C465.189 111.03 466.059 110.36 467.059 109.88C468.079 109.4 469.199 109.16 470.419 109.16C471.939 109.16 473.159 109.51 474.079 110.21C475.019 110.89 475.489 111.87 475.489 113.15C475.489 113.67 475.359 114.22 475.099 114.8C474.859 115.38 474.339 115.92 473.539 116.42C472.739 116.92 471.569 117.35 470.029 117.71C468.509 118.07 466.479 118.28 463.939 118.34C463.919 118.5 463.909 118.65 463.909 118.79C463.909 118.93 463.909 119.02 463.909 119.06C463.909 119.72 463.969 120.34 464.089 120.92C464.229 121.5 464.459 122.02 464.779 122.48C465.119 122.92 465.569 123.27 466.129 123.53C466.689 123.79 467.399 123.92 468.259 123.92C469.459 123.92 470.479 123.61 471.319 122.99C472.159 122.37 472.969 121.42 473.749 120.14L474.979 120.89C474.119 122.39 473.149 123.51 472.069 124.25C470.989 124.99 469.669 125.36 468.109 125.36ZM470.239 110.57C468.659 110.57 467.319 111.09 466.219 112.13C465.119 113.15 464.429 114.63 464.149 116.57L464.059 117.11C466.139 117.05 467.809 116.9 469.069 116.66C470.349 116.42 471.339 116.12 472.039 115.76C472.739 115.38 473.199 114.97 473.419 114.53C473.659 114.09 473.779 113.65 473.779 113.21C473.779 112.47 473.509 111.85 472.969 111.35C472.429 110.83 471.519 110.57 470.239 110.57Z" fill="white"/>
<path d="M483.608 125L485.978 110.96H481.238L481.478 109.52H487.868L487.268 113.06H487.418C487.678 112.52 487.968 112.04 488.288 111.62C488.628 111.18 489.008 110.81 489.428 110.51C489.868 110.19 490.358 109.95 490.898 109.79C491.458 109.61 492.098 109.52 492.818 109.52H495.638L495.368 111.17H492.368C490.848 111.17 489.638 111.61 488.738 112.49C488.398 112.77 488.028 113.2 487.628 113.78C487.228 114.34 486.958 115.04 486.818 115.88L485.288 125H483.608Z" fill="white"/>
</svg>
